<svg width="642" height="212" viewBox="0 0 642 212" fill="none" xmlns="http://www.w3.org/2000/svg">
<path d="M73.024 151.824C71.104 151.824 68.992 151.632 66.688 151.248C64.384 150.864 62.048 150.256 59.68 149.424C57.376 148.528 55.168 147.376 53.056 145.968C51.008 144.56 49.248 142.832 47.776 140.784C47.328 140.144 47.104 139.536 47.104 138.96C47.168 138.384 47.648 137.648 48.544 136.752C49.44 135.792 50.176 135.28 50.752 135.216C51.392 135.088 52.32 135.568 53.536 136.656C55.008 138.064 56.704 139.28 58.624 140.304C60.544 141.328 62.688 142.16 65.056 142.8C67.488 143.376 70.144 143.664 73.024 143.664C76.544 143.664 79.584 143.312 82.144 142.608C84.768 141.904 86.944 140.848 88.672 139.44C90.4 137.968 91.68 136.144 92.512 133.968C93.408 131.728 93.856 129.104 93.856 126.096C93.856 123.6 93.408 121.456 92.512 119.664C91.68 117.872 90.432 116.336 88.768 115.056C87.168 113.712 85.248 112.528 83.008 111.504C80.768 110.416 78.272 109.456 75.52 108.624C73.152 107.856 70.752 106.992 68.32 106.032C65.888 105.008 63.552 103.792 61.312 102.384C59.136 100.912 57.184 99.184 55.456 97.2C53.792 95.216 52.448 92.912 51.424 90.288C50.464 87.664 49.984 84.592 49.984 81.072C49.984 77.424 50.624 74.224 51.904 71.472C53.184 68.72 54.976 66.384 57.28 64.464C59.648 62.48 62.4 61.008 65.536 60.048C68.736 59.024 72.256 58.512 76.096 58.512C79.488 58.512 82.592 58.992 85.408 59.952C88.288 60.848 90.944 62.096 93.376 63.696C95.808 65.232 98.112 66.992 100.288 68.976C100.992 69.616 101.28 70.288 101.152 70.992C101.024 71.632 100.608 72.304 99.904 73.008C99.136 73.84 98.368 74.416 97.6 74.736C96.896 75.056 96.192 74.96 95.488 74.448C93.696 72.976 91.84 71.664 89.92 70.512C88 69.296 85.888 68.368 83.584 67.728C81.344 67.024 78.848 66.672 76.096 66.672C73.344 66.672 70.912 66.992 68.8 67.632C66.688 68.208 64.864 69.104 63.328 70.32C61.856 71.472 60.736 72.976 59.968 74.832C59.264 76.624 58.912 78.704 58.912 81.072C58.912 83.888 59.36 86.32 60.256 88.368C61.152 90.352 62.432 92.08 64.096 93.552C65.824 95.024 67.84 96.272 70.144 97.296C72.448 98.32 74.944 99.248 77.632 100.08C80.448 100.976 83.328 102.064 86.272 103.344C89.28 104.56 92 106.16 94.432 108.144C96.928 110.064 98.912 112.464 100.384 115.344C101.92 118.224 102.688 121.808 102.688 126.096C102.688 130.32 102.016 134.032 100.672 137.232C99.328 140.432 97.376 143.12 94.816 145.296C92.256 147.408 89.12 149.008 85.408 150.096C81.76 151.248 77.632 151.824 73.024 151.824ZM164.952 151.632C162.776 151.632 160.888 151.312 159.288 150.672C157.688 150.096 156.376 149.2 155.352 147.984C154.328 146.704 153.56 145.136 153.048 143.28C152.6 141.36 152.376 139.12 152.376 136.56V118.704C152.376 115.312 151.608 112.656 150.072 110.736C148.6 108.816 146.104 107.856 142.584 107.856C141.24 107.856 139.864 108.048 138.456 108.432C137.048 108.816 135.672 109.424 134.328 110.256C132.984 111.088 131.736 112.208 130.584 113.616C129.432 114.96 128.408 116.624 127.512 118.608V148.944C127.512 149.776 127.16 150.384 126.456 150.768C125.752 151.216 124.728 151.44 123.384 151.44C121.976 151.44 120.92 151.216 120.216 150.768C119.576 150.384 119.256 149.776 119.256 148.944V61.008C119.256 60.176 119.576 59.568 120.216 59.184C120.92 58.736 121.976 58.512 123.384 58.512C124.728 58.512 125.752 58.736 126.456 59.184C127.16 59.568 127.512 60.176 127.512 61.008V109.2C128.408 107.856 129.432 106.64 130.584 105.552C131.8 104.4 133.08 103.44 134.424 102.672C135.832 101.84 137.304 101.232 138.84 100.848C140.376 100.4 142.008 100.176 143.736 100.176C147.064 100.176 149.976 100.784 152.472 102C155.032 103.216 157.016 105.136 158.424 107.76C159.896 110.32 160.632 113.712 160.632 117.936V136.56C160.632 139.44 161.048 141.488 161.88 142.704C162.776 143.856 164.408 144.432 166.776 144.432C167.672 144.432 168.344 144.816 168.792 145.584C169.24 146.288 169.4 147.12 169.272 148.08C169.208 148.976 168.824 149.776 168.12 150.48C167.416 151.248 166.36 151.632 164.952 151.632ZM164.987 151.632C164.411 151.632 163.995 151.248 163.739 150.48C163.483 149.776 163.419 148.976 163.547 148.08C163.675 147.12 163.995 146.288 164.507 145.584C165.019 144.816 165.755 144.432 166.715 144.432C168.251 144.432 169.627 144.016 170.843 143.184C171.995 142.352 173.02 141.104 173.916 139.44C174.812 137.776 175.58 135.728 176.22 133.296C176.86 130.864 177.372 128.016 177.756 124.752C178.332 120.016 179.068 116.112 179.964 113.04C180.924 109.904 182.044 107.44 183.324 105.648C184.604 103.792 186.044 102.48 187.644 101.712C189.244 100.944 191.004 100.56 192.924 100.56C193.5 100.56 193.916 100.944 194.172 101.712C194.492 102.416 194.62 103.248 194.556 104.208C194.556 105.104 194.396 105.936 194.076 106.704C193.756 107.408 193.308 107.76 192.732 107.76C191.964 107.76 191.196 107.984 190.428 108.432C189.724 108.816 189.052 109.584 188.412 110.736C187.772 111.824 187.164 113.424 186.588 115.536C186.076 117.584 185.596 120.272 185.148 123.6C184.444 129.36 183.484 134.096 182.268 137.808C181.116 141.456 179.708 144.304 178.044 146.352C176.444 148.336 174.556 149.712 172.38 150.48C170.203 151.248 167.739 151.632 164.987 151.632ZM192.444 151.44C191.1 151.44 190.076 151.216 189.372 150.768C188.732 150.384 188.412 149.776 188.412 148.944V114.576C188.412 111.888 188.028 110.096 187.26 109.2C186.492 108.24 185.116 107.76 183.132 107.76C182.172 107.76 181.468 107.408 181.02 106.704C180.572 105.936 180.348 105.104 180.348 104.208C180.348 103.248 180.604 102.416 181.116 101.712C181.628 100.944 182.364 100.56 183.324 100.56C185.18 100.56 186.812 100.752 188.22 101.136C189.628 101.52 190.844 102.128 191.868 102.96C192.956 103.792 193.852 104.816 194.556 106.032C195.26 107.248 195.772 108.688 196.092 110.352L196.188 110.832C196.892 109.168 197.724 107.696 198.684 106.416C199.644 105.072 200.668 103.952 201.756 103.056C202.844 102.096 203.964 101.392 205.116 100.944C206.332 100.432 207.516 100.176 208.668 100.176C209.884 100.176 210.78 100.56 211.356 101.328C211.996 102.096 212.316 102.992 212.316 104.016C212.316 105.04 211.996 105.936 211.356 106.704C210.78 107.472 209.884 107.856 208.668 107.856C207.516 107.856 206.332 108.208 205.116 108.912C203.964 109.552 202.844 110.512 201.756 111.792C200.732 113.008 199.772 114.48 198.876 116.208C198.044 117.872 197.308 119.728 196.668 121.776V148.944C196.668 149.776 196.316 150.384 195.612 150.768C194.908 151.216 193.852 151.44 192.444 151.44ZM217.989 116.976C215.237 116.976 212.997 116.464 211.269 115.44C209.477 114.416 208.165 112.912 207.333 110.928C206.501 108.88 206.085 106.416 206.085 103.536L208.677 100.176C210.213 100.176 211.397 100.528 212.229 101.232C213.061 101.872 213.477 102.992 213.477 104.592C213.477 105.616 213.605 106.512 213.861 107.28C214.053 107.984 214.405 108.592 214.917 109.104C215.365 109.552 215.941 109.904 216.645 110.16C217.349 110.416 218.181 110.544 219.141 110.544C220.741 110.544 222.277 110.192 223.749 109.488C225.285 108.72 226.597 107.728 227.685 106.512C228.837 105.232 229.637 103.792 230.085 102.192C230.277 101.68 230.725 101.52 231.429 101.712C232.133 101.904 232.805 102.32 233.445 102.96C234.085 103.536 234.309 104.144 234.117 104.784C233.541 107.088 232.421 109.168 230.757 111.024C229.157 112.88 227.237 114.352 224.997 115.44C222.757 116.464 220.421 116.976 217.989 116.976ZM239.781 151.632C237.605 151.632 235.717 151.312 234.117 150.672C232.517 150.096 231.205 149.2 230.181 147.984C229.157 146.704 228.389 145.136 227.877 143.28C227.429 141.36 227.205 139.12 227.205 136.56V103.056C227.205 102.224 227.525 101.616 228.165 101.232C228.869 100.784 229.893 100.56 231.237 100.56C232.645 100.56 233.701 100.784 234.405 101.232C235.109 101.616 235.461 102.224 235.461 103.056V136.56C235.461 139.44 235.877 141.488 236.709 142.704C237.605 143.856 239.237 144.432 241.605 144.432C242.501 144.432 243.173 144.816 243.621 145.584C244.069 146.288 244.229 147.12 244.101 148.08C244.037 148.976 243.653 149.776 242.949 150.48C242.245 151.248 241.189 151.632 239.781 151.632ZM231.429 85.776C229.637 85.776 228.261 85.296 227.301 84.336C226.405 83.312 225.957 81.808 225.957 79.824C225.957 77.776 226.405 76.24 227.301 75.216C228.261 74.192 229.637 73.68 231.429 73.68C233.157 73.68 234.469 74.192 235.365 75.216C236.261 76.24 236.709 77.776 236.709 79.824C236.773 81.808 236.325 83.312 235.365 84.336C234.469 85.296 233.157 85.776 231.429 85.776ZM239.8 151.632C238.904 151.632 238.264 151.248 237.88 150.48C237.432 149.776 237.272 148.976 237.4 148.08C237.464 147.12 237.848 146.288 238.552 145.584C239.256 144.816 240.28 144.432 241.624 144.432C243.8 144.432 245.784 144.048 247.576 143.28C249.432 142.512 251.096 141.456 252.568 140.112C254.04 138.768 255.352 137.168 256.504 135.312C257.72 133.456 258.744 131.44 259.576 129.264C259.96 128.304 260.536 127.888 261.304 128.016C262.072 128.08 262.712 128.4 263.224 128.976C263.8 129.552 263.992 130.192 263.8 130.896C262.776 134.16 261.496 137.072 259.96 139.632C258.424 142.192 256.632 144.368 254.584 146.16C252.6 147.952 250.36 149.296 247.864 150.192C245.432 151.152 242.744 151.632 239.8 151.632ZM277.048 151.632C273.976 151.632 271.288 151.184 268.984 150.288C266.68 149.392 264.728 148.048 263.128 146.256C261.592 144.464 260.408 142.256 259.576 139.632C258.808 137.008 258.424 133.968 258.424 130.512V109.68H250.936C249.976 109.68 249.304 109.392 248.92 108.816C248.536 108.24 248.344 107.248 248.344 105.84C248.344 104.368 248.536 103.376 248.92 102.864C249.304 102.288 249.976 102 250.936 102H258.424V82.416C258.424 81.584 258.744 80.976 259.384 80.592C260.088 80.144 261.112 79.92 262.456 79.92C263.864 79.92 264.92 80.144 265.624 80.592C266.328 80.976 266.68 81.584 266.68 82.416V102H278.776C279.736 102 280.408 102.288 280.792 102.864C281.24 103.376 281.464 104.368 281.464 105.84C281.464 107.248 281.24 108.24 280.792 108.816C280.408 109.392 279.736 109.68 278.776 109.68H266.68V130.512C266.68 132.816 266.936 134.832 267.448 136.56C267.96 138.288 268.728 139.728 269.752 140.88C270.776 142.032 272.024 142.928 273.496 143.568C275.032 144.144 276.792 144.432 278.776 144.432C279.672 144.432 280.344 144.816 280.792 145.584C281.24 146.288 281.4 147.12 281.272 148.08C281.208 148.976 280.824 149.776 280.12 150.48C279.416 151.248 278.392 151.632 277.048 151.632ZM277.019 151.632C276.123 151.632 275.483 151.248 275.099 150.48C274.651 149.776 274.491 148.976 274.619 148.08C274.683 147.12 275.067 146.288 275.771 145.584C276.475 144.816 277.499 144.432 278.843 144.432C280.763 144.432 282.491 144.176 284.027 143.664C285.499 143.152 286.779 142.384 287.867 141.36C288.955 140.336 289.819 139.056 290.459 137.52C291.163 135.984 291.643 134.192 291.899 132.144C292.027 131.184 292.507 130.576 293.339 130.32C294.171 130 294.971 130 295.739 130.32C296.571 130.576 296.923 131.184 296.795 132.144C296.539 135.536 295.867 138.48 294.779 140.976C293.691 143.408 292.283 145.424 290.555 147.024C288.827 148.56 286.811 149.712 284.507 150.48C282.267 151.248 279.771 151.632 277.019 151.632ZM310.139 151.632C306.491 151.632 303.259 150.768 300.443 149.04C297.627 147.248 295.419 144.56 293.819 140.976C292.219 137.392 291.419 132.88 291.419 127.44C291.419 124.112 291.739 121.04 292.379 118.224C293.019 115.408 293.915 112.88 295.067 110.64C296.283 108.4 297.755 106.512 299.483 104.976C301.275 103.44 303.291 102.256 305.531 101.424C307.771 100.592 310.235 100.176 312.923 100.176C315.547 100.176 318.235 100.688 320.987 101.712C323.739 102.736 326.203 104.08 328.379 105.744V112.944C325.819 110.896 323.355 109.52 320.987 108.816C318.683 108.112 316.283 107.76 313.787 107.76C312.123 107.76 310.555 108.016 309.083 108.528C307.675 109.04 306.395 109.808 305.243 110.832C304.155 111.856 303.195 113.136 302.363 114.672C301.595 116.208 300.987 118 300.539 120.048C300.155 122.096 299.963 124.432 299.963 127.056C299.963 130.576 300.379 133.616 301.211 136.176C302.043 138.672 303.291 140.592 304.955 141.936C306.683 143.28 308.827 143.952 311.387 143.952C313.691 143.952 315.835 143.44 317.819 142.416C319.867 141.328 321.723 139.632 323.387 137.328C325.115 134.96 326.587 131.856 327.803 128.016L329.339 133.872C327.867 138.8 326.043 142.544 323.867 145.104C321.755 147.664 319.483 149.392 317.051 150.288C314.683 151.184 312.379 151.632 310.139 151.632ZM337.979 151.632C335.803 151.632 333.915 151.312 332.315 150.672C330.715 150.096 329.403 149.2 328.379 147.984C327.355 146.704 326.587 145.136 326.075 143.28C325.627 141.36 325.403 139.12 325.403 136.56V103.344C325.403 102.384 325.755 101.68 326.459 101.232C327.163 100.784 328.219 100.56 329.627 100.56C330.971 100.56 331.963 100.784 332.603 101.232C333.307 101.616 333.659 102.256 333.659 103.152V136.56C333.659 139.44 334.075 141.488 334.907 142.704C335.803 143.856 337.435 144.432 339.803 144.432C340.379 144.432 340.795 144.816 341.051 145.584C341.371 146.288 341.467 147.12 341.339 148.08C341.275 148.976 340.955 149.776 340.379 150.48C339.867 151.248 339.067 151.632 337.979 151.632ZM337.956 151.632C337.38 151.632 336.964 151.248 336.708 150.48C336.452 149.776 336.388 148.976 336.516 148.08C336.644 147.12 336.964 146.288 337.476 145.584C337.988 144.816 338.724 144.432 339.684 144.432C341.22 144.432 342.596 144.016 343.812 143.184C344.964 142.352 345.988 141.104 346.884 139.44C347.78 137.776 348.548 135.728 349.188 133.296C349.828 130.864 350.34 128.016 350.724 124.752C351.3 120.016 352.036 116.112 352.932 113.04C353.892 109.904 355.012 107.44 356.292 105.648C357.572 103.792 359.012 102.48 360.612 101.712C362.212 100.944 363.972 100.56 365.892 100.56C366.468 100.56 366.884 100.944 367.14 101.712C367.46 102.416 367.588 103.248 367.524 104.208C367.524 105.104 367.364 105.936 367.044 106.704C366.724 107.408 366.276 107.76 365.7 107.76C364.932 107.76 364.164 107.984 363.396 108.432C362.692 108.816 362.02 109.584 361.38 110.736C360.74 111.824 360.132 113.424 359.556 115.536C359.044 117.584 358.564 120.272 358.116 123.6C357.412 129.36 356.452 134.096 355.236 137.808C354.084 141.456 352.676 144.304 351.012 146.352C349.412 148.336 347.524 149.712 345.348 150.48C343.172 151.248 340.708 151.632 337.956 151.632ZM365.412 151.44C364.068 151.44 363.044 151.216 362.34 150.768C361.7 150.384 361.38 149.776 361.38 148.944V114.576C361.38 111.888 360.996 110.096 360.228 109.2C359.46 108.24 358.084 107.76 356.1 107.76C355.14 107.76 354.436 107.408 353.988 106.704C353.54 105.936 353.316 105.104 353.316 104.208C353.316 103.248 353.572 102.416 354.084 101.712C354.596 100.944 355.332 100.56 356.292 100.56C358.148 100.56 359.78 100.784 361.188 101.232C362.66 101.616 363.876 102.192 364.836 102.96C365.86 103.728 366.692 104.688 367.332 105.84C368.036 106.928 368.548 108.144 368.868 109.488L368.964 109.872C369.988 108.016 371.14 106.48 372.42 105.264C373.7 104.048 375.012 103.056 376.356 102.288C377.764 101.52 379.172 100.976 380.58 100.656C381.988 100.336 383.3 100.176 384.516 100.176C387.78 100.176 390.692 100.784 393.252 102C395.812 103.216 397.828 105.136 399.3 107.76C400.836 110.32 401.604 113.712 401.604 117.936V148.944C401.604 149.776 401.252 150.384 400.548 150.768C399.844 151.216 398.788 151.44 397.38 151.44C395.972 151.44 394.916 151.216 394.212 150.768C393.572 150.384 393.252 149.776 393.252 148.944V118.704C393.252 116.4 392.932 114.448 392.292 112.848C391.652 111.184 390.596 109.936 389.124 109.104C387.716 108.272 385.796 107.856 383.364 107.856C382.212 107.856 381.028 108.048 379.812 108.432C378.596 108.752 377.348 109.328 376.068 110.16C374.852 110.992 373.7 112.08 372.612 113.424C371.524 114.768 370.532 116.432 369.636 118.416V148.944C369.636 149.776 369.284 150.384 368.58 150.768C367.876 151.216 366.82 151.44 365.412 151.44ZM434.532 151.632C432.868 151.632 431.428 151.408 430.212 150.96C428.996 150.512 428.004 149.872 427.236 149.04C426.532 148.208 425.988 147.184 425.604 145.968C425.284 144.688 425.124 143.28 425.124 141.744V118.704C425.124 116.464 424.804 114.544 424.164 112.944C423.524 111.28 422.468 110.032 420.996 109.2C419.588 108.304 417.7 107.856 415.332 107.856C413.668 107.856 411.972 108.144 410.244 108.72C408.58 109.296 406.98 110.256 405.444 111.6C403.908 112.88 402.532 114.64 401.316 116.88C400.164 119.12 399.236 121.872 398.532 125.136H396.036C396.036 121.488 396.516 118.16 397.476 115.152C398.5 112.08 399.908 109.424 401.7 107.184C403.556 104.944 405.732 103.216 408.228 102C410.724 100.784 413.476 100.176 416.484 100.176C419.748 100.176 422.628 100.784 425.124 102C427.684 103.216 429.7 105.136 431.172 107.76C432.644 110.32 433.38 113.712 433.38 117.936V140.784C433.38 141.616 433.508 142.32 433.764 142.896C434.02 143.408 434.372 143.792 434.82 144.048C435.268 144.304 435.78 144.432 436.356 144.432C437.124 144.432 437.732 144.336 438.18 144.144C438.628 143.952 439.044 143.696 439.428 143.376C439.812 143.056 440.26 142.704 440.772 142.32C441.22 142 441.764 141.936 442.404 142.128C443.044 142.256 443.62 142.672 444.132 143.376C444.516 143.824 444.772 144.4 444.9 145.104C445.028 145.744 444.9 146.32 444.516 146.832C443.812 147.856 442.916 148.72 441.828 149.424C440.74 150.128 439.556 150.672 438.276 151.056C437.06 151.44 435.812 151.632 434.532 151.632ZM477.93 151.824C476.01 151.824 473.898 151.632 471.594 151.248C469.29 150.864 466.954 150.256 464.586 149.424C462.282 148.528 460.074 147.376 457.962 145.968C455.914 144.56 454.154 142.832 452.682 140.784C452.234 140.144 452.01 139.536 452.01 138.96C452.074 138.384 452.554 137.648 453.45 136.752C454.346 135.792 455.082 135.28 455.658 135.216C456.298 135.088 457.226 135.568 458.442 136.656C459.914 138.064 461.61 139.28 463.53 140.304C465.45 141.328 467.594 142.16 469.962 142.8C472.394 143.376 475.05 143.664 477.93 143.664C481.45 143.664 484.49 143.312 487.05 142.608C489.674 141.904 491.85 140.848 493.578 139.44C495.306 137.968 496.586 136.144 497.418 133.968C498.314 131.728 498.762 129.104 498.762 126.096C498.762 123.6 498.314 121.456 497.418 119.664C496.586 117.872 495.338 116.336 493.674 115.056C492.074 113.712 490.154 112.528 487.914 111.504C485.674 110.416 483.178 109.456 480.426 108.624C478.058 107.856 475.658 106.992 473.226 106.032C470.794 105.008 468.458 103.792 466.218 102.384C464.042 100.912 462.09 99.184 460.362 97.2C458.698 95.216 457.354 92.912 456.33 90.288C455.37 87.664 454.89 84.592 454.89 81.072C454.89 77.424 455.53 74.224 456.81 71.472C458.09 68.72 459.882 66.384 462.186 64.464C464.554 62.48 467.306 61.008 470.442 60.048C473.642 59.024 477.162 58.512 481.002 58.512C484.394 58.512 487.498 58.992 490.314 59.952C493.194 60.848 495.85 62.096 498.282 63.696C500.714 65.232 503.018 66.992 505.194 68.976C505.898 69.616 506.186 70.288 506.058 70.992C505.93 71.632 505.514 72.304 504.81 73.008C504.042 73.84 503.274 74.416 502.506 74.736C501.802 75.056 501.098 74.96 500.394 74.448C498.602 72.976 496.746 71.664 494.826 70.512C492.906 69.296 490.794 68.368 488.49 67.728C486.25 67.024 483.754 66.672 481.002 66.672C478.25 66.672 475.818 66.992 473.706 67.632C471.594 68.208 469.77 69.104 468.234 70.32C466.762 71.472 465.642 72.976 464.874 74.832C464.17 76.624 463.818 78.704 463.818 81.072C463.818 83.888 464.266 86.32 465.162 88.368C466.058 90.352 467.338 92.08 469.002 93.552C470.73 95.024 472.746 96.272 475.05 97.296C477.354 98.32 479.85 99.248 482.538 100.08C485.354 100.976 488.234 102.064 491.178 103.344C494.186 104.56 496.906 106.16 499.338 108.144C501.834 110.064 503.818 112.464 505.29 115.344C506.826 118.224 507.594 121.808 507.594 126.096C507.594 130.32 506.922 134.032 505.578 137.232C504.234 140.432 502.282 143.12 499.722 145.296C497.162 147.408 494.026 149.008 490.314 150.096C486.666 151.248 482.538 151.824 477.93 151.824ZM536.163 151.632C533.987 151.632 532.099 151.312 530.499 150.672C528.899 150.096 527.587 149.2 526.562 147.984C525.539 146.704 524.771 145.136 524.259 143.28C523.811 141.36 523.587 139.12 523.587 136.56V103.056C523.587 102.224 523.907 101.616 524.547 101.232C525.251 100.784 526.275 100.56 527.619 100.56C529.027 100.56 530.083 100.784 530.787 101.232C531.491 101.616 531.843 102.224 531.843 103.056V136.56C531.843 139.44 532.259 141.488 533.091 142.704C533.987 143.856 535.619 144.432 537.987 144.432C538.883 144.432 539.555 144.816 540.003 145.584C540.451 146.288 540.611 147.12 540.483 148.08C540.419 148.976 540.035 149.776 539.331 150.48C538.627 151.248 537.571 151.632 536.163 151.632ZM527.811 85.776C526.019 85.776 524.643 85.296 523.683 84.336C522.787 83.312 522.339 81.808 522.339 79.824C522.339 77.776 522.787 76.24 523.683 75.216C524.643 74.192 526.019 73.68 527.811 73.68C529.539 73.68 530.851 74.192 531.747 75.216C532.643 76.24 533.091 77.776 533.091 79.824C533.155 81.808 532.707 83.312 531.747 84.336C530.851 85.296 529.539 85.776 527.811 85.776ZM536.144 151.632C535.568 151.632 535.152 151.248 534.896 150.48C534.64 149.776 534.576 148.976 534.704 148.08C534.832 147.12 535.152 146.288 535.664 145.584C536.176 144.816 536.912 144.432 537.872 144.432C539.408 144.432 540.784 144.016 542 143.184C543.152 142.352 544.176 141.104 545.072 139.44C545.968 137.776 546.736 135.728 547.376 133.296C548.016 130.864 548.528 128.016 548.912 124.752C549.488 120.016 550.224 116.112 551.12 113.04C552.08 109.904 553.2 107.44 554.48 105.648C555.76 103.792 557.2 102.48 558.8 101.712C560.4 100.944 562.16 100.56 564.08 100.56C564.656 100.56 565.072 100.944 565.328 101.712C565.648 102.416 565.776 103.248 565.712 104.208C565.712 105.104 565.552 105.936 565.232 106.704C564.912 107.408 564.464 107.76 563.888 107.76C563.12 107.76 562.352 107.984 561.584 108.432C560.88 108.816 560.208 109.584 559.568 110.736C558.928 111.824 558.32 113.424 557.744 115.536C557.232 117.584 556.752 120.272 556.304 123.6C555.6 129.36 554.64 134.096 553.424 137.808C552.272 141.456 550.864 144.304 549.2 146.352C547.6 148.336 545.712 149.712 543.536 150.48C541.36 151.248 538.896 151.632 536.144 151.632ZM563.6 151.44C562.256 151.44 561.232 151.216 560.528 150.768C559.888 150.384 559.568 149.776 559.568 148.944V114.576C559.568 111.888 559.184 110.096 558.416 109.2C557.648 108.24 556.272 107.76 554.288 107.76C553.328 107.76 552.624 107.408 552.176 106.704C551.728 105.936 551.504 105.104 551.504 104.208C551.504 103.248 551.76 102.416 552.272 101.712C552.784 100.944 553.52 100.56 554.48 100.56C556.272 100.56 557.872 100.752 559.28 101.136C560.752 101.52 562 102.128 563.024 102.96C564.112 103.792 565.008 104.816 565.712 106.032C566.416 107.248 566.928 108.688 567.248 110.352L567.344 110.832C568.048 109.168 568.88 107.696 569.84 106.416C570.8 105.072 571.824 103.952 572.912 103.056C574 102.096 575.12 101.392 576.272 100.944C577.488 100.432 578.672 100.176 579.824 100.176C580.72 100.176 581.488 100.4 582.128 100.848C582.832 101.296 583.184 102.288 583.184 103.824C583.184 105.616 583.344 107.12 583.664 108.336C584.048 109.552 584.56 110.48 585.2 111.12C585.904 111.696 586.704 111.984 587.6 111.984C589.2 111.984 590.864 111.248 592.592 109.776C594.32 108.304 595.984 106.672 597.584 104.88C598.16 104.24 598.8 104.016 599.504 104.208C600.208 104.336 600.848 104.72 601.424 105.36C602.064 106 602.48 106.704 602.672 107.472C602.864 108.176 602.736 108.784 602.288 109.296C600.176 111.856 597.84 114.032 595.28 115.824C592.72 117.616 590.16 118.512 587.6 118.512C585.872 118.512 584.24 118.128 582.704 117.36C581.232 116.592 579.984 115.44 578.96 113.904C578 112.368 577.36 110.512 577.04 108.336C576.08 108.72 575.152 109.328 574.256 110.16C573.424 110.992 572.592 112.016 571.76 113.232C570.992 114.384 570.256 115.728 569.552 117.264C568.912 118.736 568.336 120.304 567.824 121.968V148.944C567.824 149.776 567.472 150.384 566.768 150.768C566.064 151.216 565.008 151.44 563.6 151.44Z" fill="url(#paint0_linear_68_3)"/>
<defs>
<linearGradient id="paint0_linear_68_3" x1="40" y1="106" x2="601" y2="106" gradientUnits="userSpaceOnUse">
<stop stop-color="#7695FF"/>
<stop offset="0.5" stop-color="#BB80C4"/>
<stop offset="1" stop-color="#FF6A88"/>
</linearGradient>
</defs>
</svg>
